<mxfile host="app.diagrams.net" agent="Mozilla/5.0 (Windows NT 10.0; Win64; x64) AppleWebKit/537.36 (KHTML, like Gecko) Chrome/130.0.0.0 Safari/537.36 Edg/130.0.0.0" version="24.8.3">
  <diagram name="第 1 页" id="TDeOkKSsGTex9BlClYvF">
    <mxGraphModel dx="381" dy="206" grid="1" gridSize="10" guides="1" tooltips="1" connect="1" arrows="1" fold="1" page="1" pageScale="1" pageWidth="1169" pageHeight="827" math="0" shadow="0">
      <root>
        <mxCell id="0" />
        <mxCell id="1" parent="0" />
        <mxCell id="gp9tZCWzquhpx5BDjX6n-27" value="" style="ellipse;whiteSpace=wrap;html=1;aspect=fixed;fillColor=none;rotation=-22.5;strokeWidth=2;container=0;" vertex="1" parent="1">
          <mxGeometry x="180.5" y="300.5" width="199" height="199" as="geometry" />
        </mxCell>
        <mxCell id="gp9tZCWzquhpx5BDjX6n-28" value="" style="endArrow=none;html=1;rounded=0;exitX=0.5;exitY=1;exitDx=0;exitDy=0;strokeWidth=2;" edge="1" parent="1" source="gp9tZCWzquhpx5BDjX6n-27">
          <mxGeometry width="50" height="50" relative="1" as="geometry">
            <mxPoint x="214.6552253461777" y="372.6385759200411" as="sourcePoint" />
            <mxPoint x="241.38789861350443" y="307.96195900461817" as="targetPoint" />
          </mxGeometry>
        </mxCell>
        <mxCell id="gp9tZCWzquhpx5BDjX6n-29" value="" style="endArrow=none;html=1;rounded=0;exitX=0;exitY=0.5;exitDx=0;exitDy=0;entryX=1;entryY=0.5;entryDx=0;entryDy=0;strokeWidth=2;" edge="1" parent="1" source="gp9tZCWzquhpx5BDjX6n-27" target="gp9tZCWzquhpx5BDjX6n-27">
          <mxGeometry width="50" height="50" relative="1" as="geometry">
            <mxPoint x="224.5562154451876" y="421.39479482551366" as="sourcePoint" />
            <mxPoint x="250.2987897026133" y="357.71320278571267" as="targetPoint" />
          </mxGeometry>
        </mxCell>
        <mxCell id="gp9tZCWzquhpx5BDjX6n-30" value="" style="endArrow=none;html=1;rounded=0;entryX=1;entryY=0;entryDx=0;entryDy=0;exitX=0;exitY=1;exitDx=0;exitDy=0;strokeWidth=2;" edge="1" parent="1" source="gp9tZCWzquhpx5BDjX6n-27" target="gp9tZCWzquhpx5BDjX6n-27">
          <mxGeometry width="50" height="50" relative="1" as="geometry">
            <mxPoint x="279.01166098974204" y="399.5042475618321" as="sourcePoint" />
            <mxPoint x="305.7443342570688" y="334.8276306464092" as="targetPoint" />
          </mxGeometry>
        </mxCell>
        <mxCell id="gp9tZCWzquhpx5BDjX6n-31" value="" style="endArrow=none;html=1;rounded=0;entryX=1;entryY=1;entryDx=0;entryDy=0;exitX=0;exitY=0;exitDx=0;exitDy=0;strokeWidth=2;" edge="1" parent="1" source="gp9tZCWzquhpx5BDjX6n-27" target="gp9tZCWzquhpx5BDjX6n-27">
          <mxGeometry width="50" height="50" relative="1" as="geometry">
            <mxPoint x="78.02156197984105" y="483.0863371140709" as="sourcePoint" />
            <mxPoint x="105.74433425706876" y="417.41469532302614" as="targetPoint" />
          </mxGeometry>
        </mxCell>
        <mxCell id="gp9tZCWzquhpx5BDjX6n-32" value="①" style="text;html=1;align=center;verticalAlign=middle;whiteSpace=wrap;rounded=0;strokeWidth=2;container=0;" vertex="1" parent="1">
          <mxGeometry x="269" y="363" width="22" height="22" as="geometry" />
        </mxCell>
        <mxCell id="gp9tZCWzquhpx5BDjX6n-33" value="②" style="text;html=1;align=center;verticalAlign=middle;whiteSpace=wrap;rounded=0;strokeWidth=2;container=0;" vertex="1" parent="1">
          <mxGeometry x="252" y="370" width="22" height="22" as="geometry" />
        </mxCell>
        <mxCell id="gp9tZCWzquhpx5BDjX6n-34" value="③" style="text;html=1;align=center;verticalAlign=middle;whiteSpace=wrap;rounded=0;strokeWidth=2;container=0;" vertex="1" parent="1">
          <mxGeometry x="244" y="388" width="22" height="22" as="geometry" />
        </mxCell>
        <mxCell id="gp9tZCWzquhpx5BDjX6n-35" value="④" style="text;html=1;align=center;verticalAlign=middle;whiteSpace=wrap;rounded=0;strokeWidth=2;container=0;" vertex="1" parent="1">
          <mxGeometry x="252" y="405" width="22" height="22" as="geometry" />
        </mxCell>
        <mxCell id="gp9tZCWzquhpx5BDjX6n-36" value="⑤" style="text;html=1;align=center;verticalAlign=middle;whiteSpace=wrap;rounded=0;strokeWidth=2;container=0;" vertex="1" parent="1">
          <mxGeometry x="286" y="370" width="22" height="22" as="geometry" />
        </mxCell>
        <mxCell id="gp9tZCWzquhpx5BDjX6n-37" value="⑥" style="text;html=1;align=center;verticalAlign=middle;whiteSpace=wrap;rounded=0;strokeWidth=2;container=0;" vertex="1" parent="1">
          <mxGeometry x="294" y="388" width="22" height="22" as="geometry" />
        </mxCell>
        <mxCell id="gp9tZCWzquhpx5BDjX6n-38" value="⑦" style="text;html=1;align=center;verticalAlign=middle;whiteSpace=wrap;rounded=0;strokeWidth=2;container=0;" vertex="1" parent="1">
          <mxGeometry x="286" y="405" width="22" height="22" as="geometry" />
        </mxCell>
        <mxCell id="gp9tZCWzquhpx5BDjX6n-39" value="⑧" style="text;html=1;align=center;verticalAlign=middle;whiteSpace=wrap;rounded=0;strokeWidth=2;container=0;" vertex="1" parent="1">
          <mxGeometry x="269" y="413" width="22" height="22" as="geometry" />
        </mxCell>
      </root>
    </mxGraphModel>
  </diagram>
</mxfile>
